<svg width="73" height="62" viewBox="0 0 73 62" fill="none" xmlns="http://www.w3.org/2000/svg">
<path d="M72.0767 27.4337C71.728 27.0433 71.1297 27.014 70.7422 27.3618L68.8878 29.0263L58.8313 19.0549C58.4608 18.6881 57.8635 18.6891 57.4949 19.0605C57.1272 19.431 57.1291 20.0293 57.5005 20.397L67.4795 30.2909L62.5392 34.7246L46.1085 18.0823L62.4409 2.6318C62.8199 2.27264 62.8369 1.67436 62.4777 1.29535C62.1176 0.915398 61.5203 0.901221 61.1413 1.25755L44.1076 17.3725C43.9233 17.5473 43.8165 17.7883 43.8118 18.0426C43.8071 18.2968 43.9063 18.5416 44.084 18.7231L45.5972 20.2562L42.2636 23.7438L35.8337 23.0585C35.5492 23.0245 35.2704 23.1266 35.0682 23.327L32.4548 25.9176L27.5967 21.1191L29.2337 19.4613C29.4114 19.2808 29.5106 19.035 29.5059 18.7808C29.5012 18.5265 29.3953 18.2855 29.2101 18.1106L12.1774 1.99666C11.7993 1.63939 11.2001 1.65357 10.8409 2.03446C10.4818 2.41347 10.4988 3.01176 10.8778 3.37092L22.3719 14.2431L5.53955 30.7597L2.57648 28.101C2.18896 27.7531 1.59068 27.7843 1.24192 28.1728C0.893153 28.5613 0.925288 29.1586 1.31375 29.5074L10.1878 37.4722C10.3674 37.6338 10.5942 37.7142 10.8192 37.7142C11.064 37.7142 11.3078 37.6196 11.4921 37.4334L13.0999 35.8049L21.938 44.5221L20.3142 46.1733C19.9504 46.5438 19.9523 47.1374 20.3199 47.5041L23.6374 50.8216L26.9521 54.0985L33.5758 60.7231C33.7601 60.9074 34.002 61 34.244 61C34.4859 61 34.7279 60.9074 34.9122 60.7231L36.6267 59.0086L38.3696 60.7278C38.5529 60.9093 38.793 61 39.0331 61C39.2751 61 39.517 60.9074 39.7013 60.7231L42.3468 58.0776L42.7372 58.4679C42.9215 58.6522 43.1634 58.7449 43.4054 58.7449C43.6474 58.7449 43.8893 58.6522 44.0736 58.4679L46.7191 55.8224L47.1095 56.2128C47.2938 56.3971 47.5357 56.4897 47.7777 56.4897C48.0196 56.4897 48.2616 56.3971 48.4459 56.2128L51.0914 53.5673L51.4808 53.9567C51.6651 54.141 51.9071 54.2336 52.149 54.2336C52.391 54.2336 52.633 54.141 52.8173 53.9567L56.131 50.643C56.5005 50.2734 56.5005 49.6761 56.131 49.3065L51.2105 44.386L60.1035 34.9505L61.8275 36.6972C62.0118 36.8843 62.2556 36.9779 62.5004 36.9779C62.7254 36.9779 62.9522 36.8975 63.1318 36.7359L72.0059 28.7711C72.3934 28.4195 72.4255 27.8221 72.0767 27.4337ZM24.2745 27.9601C24.2745 30.2408 22.4191 32.0952 20.1394 32.0952C19.232 32.0952 18.3606 31.7965 17.6498 31.2597L23.4389 25.4696C23.9758 26.1813 24.2745 27.0528 24.2745 27.9601ZM24.7792 24.1294L26.3566 22.5519L27.2092 23.3941L25.472 25.1729C25.2792 24.8033 25.0476 24.4536 24.7792 24.1294ZM10.7795 35.4628L6.94878 32.0243L23.7461 15.5427L27.2111 18.8205L10.7795 35.4628ZM16.3096 32.5999C16.6442 32.8768 17.0053 33.1141 17.389 33.3116C17.0894 33.6197 16.7803 33.9401 16.4693 34.2615C16.0932 34.65 15.7265 35.0271 15.372 35.391L14.4391 34.4713L16.3096 32.5999ZM23.2839 45.8482L25.2707 47.8075L24.2943 48.8046L22.3189 46.8293L23.2839 45.8482ZM27.6118 52.0928L25.6374 50.1411L26.6232 49.1421L28.6061 51.0976L27.6118 52.0928ZM29.952 52.4255L31.9425 54.3886L30.9284 55.4028L28.9511 53.4255L29.952 52.4255ZM34.243 58.7165L32.2658 56.7392L33.2894 55.7156L35.2799 57.6797L34.243 58.7165ZM52.1481 51.9492L46.7824 46.5835C46.4129 46.214 45.8155 46.214 45.446 46.5835C45.0764 46.9531 45.0764 47.5504 45.446 47.92L49.755 52.228L47.7777 54.2053L42.4111 48.8387C42.0415 48.4691 41.4442 48.4691 41.0746 48.8387C40.7051 49.2082 40.7051 49.8056 41.0746 50.1751L45.3827 54.4841L43.4054 56.4614L39.1994 52.2564L39.1985 52.2554L38.0388 51.0957C37.6692 50.7261 37.0719 50.7261 36.7023 51.0957C36.3328 51.4653 36.3328 52.0626 36.7023 52.4321L41.0104 56.7402L39.0284 58.7222L16.7179 36.718C17.0761 36.3503 17.4476 35.9675 17.8266 35.5753C18.3833 35.0006 18.9315 34.4345 19.4192 33.9392C19.6574 33.9676 19.8965 33.9855 20.1394 33.9855C23.4626 33.9855 26.1648 31.2824 26.1648 27.9601C26.1648 27.7116 26.1459 27.4658 26.1156 27.222L28.5551 24.723L31.1136 27.2494L22.1913 36.097C21.9995 36.287 21.8983 36.5497 21.9135 36.82C21.9286 37.0904 22.0571 37.3399 22.2688 37.5081C22.4891 37.6849 27.6647 41.6044 36.6513 32.4969L54.1254 49.9719L52.1481 51.9492ZM49.8722 43.0467L37.3063 30.4799C37.1258 30.2994 36.9018 30.1992 36.6229 30.203C36.3668 30.2068 36.1248 30.3145 35.949 30.5007C30.1514 36.6698 26.2678 36.8569 24.5164 36.4524L36.0795 24.9857L40.6134 25.4687L39.9329 26.1813C39.5718 26.5585 39.586 27.1567 39.9622 27.5178C40.3393 27.8779 40.9366 27.8656 41.2986 27.4876L46.7314 21.8043L58.6546 33.7275L49.8722 43.0467ZM51.5252 15.9122C51.5252 17.5407 52.8503 18.8658 54.4789 18.8658C56.1074 18.8658 57.4325 17.5407 57.4325 15.9122C57.4325 14.2837 56.1074 12.9586 54.4789 12.9586C52.8503 12.9586 51.5252 14.2837 51.5252 15.9122ZM55.5422 15.9122C55.5422 16.4982 55.0649 16.9755 54.4789 16.9755C53.8929 16.9755 53.4156 16.4982 53.4156 15.9122C53.4156 15.3262 53.8929 14.8489 54.4789 14.8489C55.0649 14.8489 55.5422 15.3262 55.5422 15.9122Z" fill="#E97900" stroke="#E97900"/>
</svg>
