<svg width="67" height="67" viewBox="0 0 67 67" fill="none" xmlns="http://www.w3.org/2000/svg">
<path fill-rule="evenodd" clip-rule="evenodd" d="M41.4273 64.3916C40.616 65.203 39.399 65.203 38.5877 64.3916L12.7267 38.5307C9.8871 35.6911 4.81633 16.4221 10.597 10.6414C16.2763 4.96218 35.6466 9.93154 38.4863 12.7712L64.3472 38.6321C65.1585 39.4434 65.1585 40.6604 64.3472 41.4717L41.4273 64.3916Z" stroke="#E97900" stroke-width="3"/>
<path d="M17.189 21.3914C19.4294 21.3914 21.2456 19.5752 21.2456 17.3348C21.2456 15.0943 19.4294 13.2781 17.189 13.2781C14.9486 13.2781 13.1324 15.0943 13.1324 17.3348C13.1324 19.5752 14.9486 21.3914 17.189 21.3914Z" stroke="#E97900" stroke-width="3"/>
<path d="M6.94606 12.771L5.52624 11.3512C-1.47142 4.35356 4.10643 4.15073 4.10643 4.15073C4.10643 4.15073 4.20784 -1.52854 11.3069 5.57054C18.0003 12.264 17.8989 14.6979 16.2763 16.3206" stroke="#E97900" stroke-width="3"/>
<path d="M36.3565 44.007C38.182 45.8324 41.1231 45.731 42.8471 44.007C44.6726 42.1815 44.6726 39.2404 42.8471 37.5164C40.2103 34.8796 35.6466 36.9079 35.6466 36.9079C35.6466 36.9079 31.0829 38.9362 28.4461 36.2994C26.6206 34.4739 26.7221 31.5329 28.4461 29.8088C30.2716 27.9833 33.2127 27.9833 34.9367 29.8088" stroke="#E97900" stroke-width="3"/>
<path d="M25.0994 26.1579L46.4981 47.4551" stroke="#E97900" stroke-width="3"/>
</svg>
