<svg width="64" height="64" viewBox="0 0 64 64" fill="none" xmlns="http://www.w3.org/2000/svg">
<path d="M55.1853 45.9375C53.3642 45.8161 52.1502 45.3594 51.1385 44.2031C49.115 41.8906 49.115 39 51.9319 36.6181L56.6754 32.4065C63.941 25.9879 63.941 15.466 56.6754 9.0459C51.3206 4.33273 44.1345 2 36.6651 2C27.9441 2 18.8314 5.17969 11.8057 11.4104C-1.26857 22.9729 -1.26857 41.895 11.8057 53.4502C18.3096 59.1968 27.0726 62.0629 35.7459 62.1221H36.0118C44.6837 62.1221 53.2212 59.3037 59.3103 53.9171C62.1228 51.4297 62.1228 50.707 59.3218 46.452C58.6541 45.3594 57.3533 46.082 55.1853 45.9375ZM11.2478 25.125C11.2478 24.2103 11.5191 23.3161 12.0273 22.5555C12.5355 21.7949 13.2578 21.2021 14.1029 20.8521C14.948 20.502 15.878 20.4104 16.7751 20.5889C17.6723 20.7673 18.4964 21.2078 19.1432 21.8546C19.79 22.5014 20.2305 23.3255 20.409 24.2227C20.5874 25.1199 20.4958 26.0498 20.1458 26.8949C19.7957 27.74 19.2029 28.4623 18.4423 28.9705C17.6818 29.4787 16.7876 29.75 15.8728 29.75C14.6462 29.75 13.4698 29.2627 12.6025 28.3954C11.7351 27.528 11.2478 26.3516 11.2478 25.125ZM17.0291 44.6367C16.1143 44.6367 15.2201 44.3655 14.4596 43.8573C13.699 43.3491 13.1062 42.6267 12.7561 41.7816C12.4061 40.9365 12.3145 40.0066 12.4929 39.1094C12.6714 38.2123 13.1119 37.3882 13.7587 36.7414C14.4055 36.0945 15.2296 35.654 16.1268 35.4756C17.024 35.2971 17.9539 35.3887 18.799 35.7388C19.6441 36.0888 20.3664 36.6816 20.8746 37.4422C21.3828 38.2028 21.6541 39.097 21.6541 40.0117C21.6541 41.2383 21.1668 42.4147 20.2995 43.2821C19.4321 44.1494 18.2557 44.6367 17.0291 44.6367ZM22.8103 15.875C22.8103 14.9603 23.0816 14.0661 23.5898 13.3055C24.098 12.5449 24.8203 11.9521 25.6654 11.6021C26.5105 11.252 27.4405 11.1604 28.3376 11.3389C29.2348 11.5173 30.0589 11.9578 30.7057 12.6046C31.3525 13.2514 31.793 14.0755 31.9715 14.9727C32.1499 15.8699 32.0583 16.7998 31.7083 17.6449C31.3582 18.49 30.7654 19.2123 30.0048 19.7205C29.2443 20.2287 28.3501 20.5 27.4353 20.5C26.2087 20.5 25.0323 20.0127 24.165 19.1454C23.2976 18.278 22.8103 17.1016 22.8103 15.875ZM32.0603 55.043C30.6882 55.043 29.3469 54.6361 28.2061 53.8738C27.0652 53.1115 26.176 52.028 25.6509 50.7603C25.1258 49.4927 24.9884 48.0978 25.2561 46.752C25.5238 45.4063 26.1846 44.1701 27.1548 43.1999C28.125 42.2297 29.3611 41.569 30.7069 41.3013C32.0526 41.0336 33.4475 41.171 34.7152 41.6961C35.9829 42.2211 37.0664 43.1103 37.8287 44.2512C38.591 45.3921 38.9978 46.7334 38.9978 48.1055C38.9978 49.9454 38.2669 51.71 36.9659 53.011C35.6649 54.3121 33.9003 55.043 32.0603 55.043ZM42.4666 20.5C41.5518 20.5 40.6576 20.2287 39.8971 19.7205C39.1365 19.2123 38.5437 18.49 38.1936 17.6449C37.8436 16.7998 37.752 15.8699 37.9304 14.9727C38.1089 14.0755 38.5494 13.2514 39.1962 12.6046C39.843 11.9578 40.6671 11.5173 41.5643 11.3389C42.4614 11.1604 43.3914 11.252 44.2365 11.6021C45.0816 11.9521 45.8039 12.5449 46.3121 13.3055C46.8203 14.0661 47.0916 14.9603 47.0916 15.875C47.0916 17.1016 46.6043 18.278 45.7369 19.1454C44.8696 20.0127 43.6932 20.5 42.4666 20.5Z" stroke="#E97900" stroke-width="3"/>
</svg>
