<svg width="250" height="59" viewBox="0 0 250 59" fill="none" xmlns="http://www.w3.org/2000/svg">
<path d="M58.0565 38.715C58.5469 39.4766 59.2568 40.0509 60.1926 40.4446C61.1284 40.8383 62.0577 41.0319 62.9741 41.0319C63.7098 41.0319 64.4003 40.8641 65.0457 40.522C65.6975 40.1865 66.259 39.7412 66.7365 39.1861C67.2077 38.6247 67.5884 37.9922 67.8724 37.2759C68.1563 36.5531 68.2983 35.8303 68.2983 35.101V13.559H71.1056V33.5973C71.1056 34.7332 70.8862 35.798 70.4538 36.7854C70.0214 37.7728 69.4406 38.6376 68.7049 39.3668C67.9756 40.0961 67.1173 40.6834 66.1235 41.1158C65.1361 41.5482 64.0841 41.7611 62.9741 41.7611C61.6769 41.7611 60.4766 41.4901 59.3795 40.9544C58.2824 40.4059 57.353 39.6637 56.598 38.715H58.0565Z" fill="white"/>
<path d="M74.1517 13.6429H77.1591C78.7596 17.728 80.3343 21.7938 81.896 25.8337C83.4514 29.8672 85.0325 33.933 86.6265 38.0245L96.5844 13.6429H97.8493L86.3426 41.8063H85.0841C83.2448 37.0888 81.4185 32.397 79.6179 27.7246C77.8174 23.0458 75.9975 18.354 74.1517 13.6429Z" fill="white"/>
<path d="M112.015 13.5977H121.076C122.082 13.5977 123.025 13.7913 123.902 14.1656C124.78 14.5464 125.555 15.0627 126.219 15.7145C126.884 16.3599 127.407 17.1278 127.781 18.012C128.162 18.8897 128.355 19.8319 128.355 20.8322C128.355 22.1358 128.033 23.3233 127.4 24.4075C126.761 25.4917 125.929 26.3629 124.896 27.0083C125.819 27.118 126.671 27.389 127.458 27.8214C128.246 28.2603 128.93 28.8024 129.511 29.4477C130.091 30.0995 130.556 30.8417 130.892 31.6871C131.234 32.5261 131.401 33.4167 131.401 34.3654C131.401 35.3979 131.201 36.3595 130.808 37.2501C130.421 38.1472 129.891 38.928 129.227 39.5863C128.562 40.251 127.775 40.7802 126.871 41.1739C125.961 41.5676 124.993 41.7612 123.96 41.7612H114.822H112.015V13.5977ZM114.822 14.74V26.9695H119.817C120.656 26.9695 121.45 26.8082 122.192 26.4855C122.941 26.1564 123.586 25.7176 124.128 25.1625C124.67 24.6075 125.103 23.9557 125.425 23.2136C125.748 22.4649 125.916 21.6712 125.916 20.8322C125.916 19.9932 125.748 19.2059 125.425 18.4766C125.103 17.7474 124.67 17.102 124.128 16.547C123.586 15.992 122.941 15.5532 122.192 15.224C121.45 14.9013 120.656 14.74 119.817 14.74H114.822ZM114.822 28.1506V40.464H122.334C123.231 40.464 124.083 40.3156 124.896 40.0187C125.709 39.7154 126.413 39.2959 127.013 38.7538C127.607 38.2117 128.084 37.5728 128.433 36.8242C128.788 36.082 128.962 35.2624 128.962 34.3654C128.962 33.4748 128.788 32.6487 128.433 31.8872C128.084 31.1321 127.607 30.4738 127.013 29.9188C126.413 29.3638 125.709 28.925 124.896 28.6152C124.083 28.3054 123.231 28.1506 122.334 28.1506H114.822Z" fill="white"/>
<path d="M135.299 13.5977H144.367C145.367 13.5977 146.309 13.7913 147.187 14.1656C148.071 14.5464 148.839 15.0691 149.504 15.7339C150.169 16.3986 150.691 17.1666 151.072 18.0507C151.453 18.9284 151.64 19.8706 151.64 20.8774C151.64 21.8519 151.453 22.7747 151.072 23.6589C150.691 24.5365 150.181 25.3045 149.549 25.9563C148.91 26.6081 148.155 27.1244 147.29 27.5181C146.425 27.9118 145.503 28.1247 144.528 28.1506C145.748 28.7443 146.858 29.4929 147.858 30.3835C148.865 31.2805 149.73 32.2938 150.459 33.4296C151.195 34.5719 151.756 35.8045 152.15 37.1339C152.543 38.4569 152.737 39.838 152.737 41.2771V41.6837H150.336V41.2771C150.336 39.7025 150.11 38.2052 149.646 36.7855C149.188 35.3657 148.549 34.0749 147.736 32.9262C146.922 31.771 145.961 30.7836 144.851 29.9576C143.741 29.1315 142.534 28.5249 141.237 28.1506H138.107V41.8063H135.299V13.5977ZM138.107 14.7787V26.9695H141.237H143.102C143.947 26.9695 144.735 26.8082 145.483 26.4855C146.225 26.1564 146.871 25.724 147.413 25.1819C147.955 24.6398 148.387 23.9944 148.716 23.2523C149.039 22.5037 149.2 21.7163 149.2 20.8774C149.2 20.0319 149.039 19.2446 148.716 18.496C148.387 17.7538 147.955 17.1085 147.413 16.5664C146.871 16.0243 146.225 15.5919 145.483 15.2627C144.735 14.9401 143.947 14.7787 143.102 14.7787H138.107Z" fill="white"/>
<path d="M157.448 13.559H160.255V41.7611H157.448V13.559Z" fill="white"/>
<path d="M166.432 13.559L182.933 37.7793V13.559H184.069V39.4443V41.7611H182.488L166.554 18.354V41.7611H165.418V16.6502L163.302 13.559H166.432Z" fill="white"/>
<path d="M189.316 13.559H190.207H192.117H198.822C200.745 13.559 202.565 13.9333 204.269 14.6754C205.979 15.424 207.47 16.4308 208.741 17.7022C210.013 18.98 211.026 20.4708 211.768 22.1745C212.517 23.8847 212.884 25.7111 212.884 27.66C212.884 29.609 212.517 31.4418 211.768 33.1456C211.026 34.8558 210.013 36.3466 208.741 37.6179C207.47 38.8893 205.979 39.9025 204.269 40.6447C202.565 41.3933 200.745 41.7611 198.822 41.7611H192.117H190.207H189.316V13.559ZM192.117 14.6948V40.6253H197.157H197.48C199.274 40.6253 200.945 40.2897 202.501 39.6121C204.062 38.9345 205.431 38.0051 206.605 36.8241C207.786 35.6496 208.715 34.275 209.393 32.7003C210.071 31.1321 210.406 29.4477 210.406 27.66C210.406 25.8724 210.071 24.1945 209.393 22.6198C208.715 21.0516 207.786 19.677 206.605 18.496C205.431 17.3214 204.062 16.3921 202.501 15.7145C200.945 15.0368 199.274 14.6948 197.48 14.6948H197.157H192.117Z" fill="white"/>
<path d="M216.098 13.559H216.544H231.258V14.6948H218.899V27.0921H228.005V28.228H218.899V40.6253H231.258V41.7611H218.899H216.098V13.559Z" fill="white"/>
<path d="M246.824 18.0701C246.766 17.8248 246.617 17.515 246.372 17.1343C246.133 16.7535 245.811 16.3986 245.417 16.0565C245.03 15.7209 244.546 15.4241 243.978 15.1659C243.41 14.9078 242.771 14.7787 242.068 14.7787C241.364 14.7787 240.738 14.9013 240.196 15.1466C239.654 15.3854 239.202 15.7016 238.834 16.0759C238.473 16.4567 238.189 16.8697 238.002 17.3214C237.815 17.7667 237.718 18.1927 237.718 18.5992C237.718 19.0058 237.776 19.4189 237.899 19.8383C238.021 20.2578 238.312 20.7289 238.776 21.2581C239.234 21.7873 239.899 22.4004 240.764 23.0909C241.635 23.7815 242.823 24.6011 244.339 25.5498C245.83 26.4145 246.998 27.4148 247.837 28.5571C248.676 29.693 249.238 30.8675 249.521 32.0743C249.812 33.2747 249.831 34.4686 249.586 35.6496C249.341 36.8242 248.87 37.8761 248.166 38.799C247.456 39.7154 246.553 40.4575 245.443 41.0125C244.326 41.5676 243.055 41.8322 241.622 41.8063C240.996 41.8063 240.306 41.7031 239.544 41.503C238.789 41.2965 238.021 40.9545 237.253 40.464C236.479 39.9735 235.75 39.3411 235.059 38.5537C234.368 37.7664 233.788 36.8048 233.329 35.669H234.549C234.549 35.8045 234.704 36.1336 235.014 36.6628C235.324 37.192 235.782 37.747 236.376 38.3279C236.976 38.9151 237.699 39.4379 238.55 39.9154C239.402 40.3865 240.37 40.6382 241.454 40.6641C242.894 40.7221 244.094 40.3736 245.056 39.6315C246.017 38.8829 246.656 37.9406 246.985 36.8048C247.308 35.669 247.289 34.4428 246.921 33.1263C246.559 31.8162 245.778 30.6287 244.584 29.5703C243.694 28.7572 242.79 28.0667 241.887 27.4987C240.977 26.9308 240.119 26.3629 239.305 25.795C238.492 25.2206 237.757 24.6075 237.105 23.9428C236.459 23.2781 235.969 22.4585 235.646 21.484C235.317 20.5611 235.246 19.6512 235.42 18.7412C235.601 17.8313 235.956 17.0117 236.498 16.2824C237.04 15.5532 237.718 14.9465 238.531 14.4754C239.344 13.9978 240.222 13.7203 241.171 13.6429C241.771 13.6106 242.371 13.6493 242.984 13.7397C243.591 13.8365 244.165 14.0172 244.707 14.2883C245.249 14.5593 245.746 14.9078 246.191 15.3273C246.637 15.7468 246.998 16.2566 247.269 16.8503L247.308 18.0701H246.824Z" fill="white"/>
<path d="M77.9722 55.8493V48.2857H80.7989C81.4443 48.2857 81.9928 48.389 82.451 48.589C82.9157 48.7956 83.2706 49.0924 83.5159 49.4796C83.7676 49.8604 83.8902 50.3315 83.8902 50.8736C83.8902 51.4093 83.7676 51.8675 83.5159 52.2547C83.2706 52.6419 82.9157 52.9388 82.451 53.1453C81.9928 53.3518 81.4443 53.4615 80.7989 53.4615H78.4111L78.766 53.0807V55.8493H77.9722ZM78.766 53.1453L78.4111 52.7581H80.7795C81.5346 52.7581 82.109 52.5903 82.5026 52.2676C82.8963 51.9384 83.0899 51.4738 83.0899 50.8736C83.0899 50.2734 82.8963 49.8023 82.5026 49.4732C82.109 49.1376 81.5346 48.9763 80.7795 48.9763H78.4111L78.766 48.5955V53.1453ZM87.8333 55.901C87.246 55.901 86.7233 55.7783 86.278 55.5266C85.8327 55.2814 85.4842 54.9394 85.2325 54.5005C84.9808 54.0681 84.8517 53.5648 84.8517 53.0033C84.8517 52.4418 84.9744 51.9449 85.2131 51.5125C85.4584 51.0801 85.7875 50.7445 86.207 50.4928C86.6329 50.2412 87.1041 50.1185 87.6268 50.1185C88.1624 50.1185 88.6336 50.2412 89.053 50.4799C89.4661 50.7252 89.7887 51.0608 90.0275 51.4996C90.2663 51.932 90.3825 52.4354 90.3825 53.0033C90.3825 53.042 90.3825 53.0807 90.376 53.1195C90.376 53.1582 90.376 53.1969 90.376 53.2421H85.4326V52.6677H89.963L89.6597 52.9C89.6597 52.487 89.5693 52.1191 89.3951 51.8029C89.2208 51.4802 88.982 51.2286 88.6787 51.0479C88.3754 50.8672 88.0269 50.7768 87.6268 50.7768C87.2396 50.7768 86.8911 50.8672 86.5813 51.0479C86.2715 51.2286 86.0328 51.4802 85.8585 51.8029C85.6843 52.1321 85.6004 52.4999 85.6004 52.9194V53.0356C85.6004 53.4679 85.6907 53.8487 85.8843 54.1778C86.0715 54.507 86.3425 54.7587 86.6846 54.9458C87.0266 55.1265 87.4138 55.2169 87.8527 55.2169C88.2012 55.2169 88.5238 55.1588 88.8207 55.0362C89.124 54.9136 89.3822 54.7264 89.5951 54.4747L90.0275 54.9716C89.7758 55.275 89.4596 55.5073 89.0853 55.6622C88.7045 55.8235 88.2915 55.901 87.8333 55.901ZM91.9507 55.8493V50.1766H92.6864V51.719L92.609 51.448C92.7703 51.0156 93.0349 50.6865 93.4092 50.4606C93.7835 50.2347 94.2482 50.1185 94.8032 50.1185V50.8672C94.7774 50.8672 94.7451 50.8607 94.7193 50.8607C94.687 50.8542 94.6612 50.8542 94.6289 50.8542C94.0352 50.8542 93.5641 51.0349 93.2285 51.4028C92.8865 51.7642 92.7187 52.2805 92.7187 52.9517V55.8493H91.9507ZM97.7847 55.901C97.3201 55.901 96.8748 55.8364 96.4553 55.7009C96.0423 55.5654 95.7131 55.3976 95.4744 55.1975L95.8228 54.5909C96.0487 54.7651 96.3456 54.9136 96.707 55.0426C97.0684 55.1652 97.4427 55.2298 97.8428 55.2298C98.3785 55.2298 98.7721 55.1459 99.0109 54.9781C99.2432 54.8103 99.3659 54.5844 99.3659 54.3005C99.3659 54.0939 99.2949 53.9326 99.1658 53.81C99.0303 53.6938 98.856 53.6035 98.6366 53.5389C98.4236 53.4809 98.1849 53.4292 97.9138 53.3841C97.6492 53.3389 97.3846 53.2873 97.12 53.2292C96.8619 53.1775 96.6166 53.0872 96.4037 52.9775C96.1843 52.8678 96.01 52.7129 95.8809 52.5193C95.7454 52.3257 95.6809 52.0675 95.6809 51.7384C95.6809 51.4286 95.7648 51.1511 95.939 50.9059C96.1133 50.6671 96.3649 50.4735 96.7005 50.3315C97.0361 50.1895 97.4427 50.1185 97.9267 50.1185C98.2946 50.1185 98.6624 50.1702 99.0303 50.267C99.3981 50.3638 99.7015 50.4928 99.9338 50.6477L99.6046 51.2673C99.353 51.093 99.0819 50.9704 98.7915 50.893C98.5011 50.8155 98.2171 50.7768 97.9267 50.7768C97.4169 50.7768 97.0361 50.8672 96.7973 51.0414C96.5586 51.2221 96.4359 51.448 96.4359 51.719C96.4359 51.9384 96.5005 52.1062 96.636 52.2289C96.7715 52.3515 96.9458 52.4483 97.1652 52.5128C97.3846 52.5838 97.6234 52.6354 97.888 52.6806C98.1526 52.7258 98.4172 52.7774 98.6753 52.8355C98.9399 52.9 99.1852 52.9839 99.4046 53.0872C99.624 53.1904 99.7983 53.3389 99.9338 53.5325C100.063 53.7196 100.134 53.9713 100.134 54.2811C100.134 54.6102 100.037 54.9006 99.8563 55.1394C99.6692 55.3782 99.4046 55.5654 99.0561 55.7009C98.7076 55.8364 98.2817 55.901 97.7847 55.901ZM103.845 55.901C103.296 55.8945 102.799 55.7654 102.367 55.5202C101.934 55.275 101.592 54.9394 101.347 54.5005C101.095 54.0681 100.973 53.5648 100.973 53.0033C100.966 52.4354 101.089 51.9384 101.347 51.5061C101.605 51.0801 101.947 50.7445 102.373 50.4928C102.799 50.2412 103.296 50.1185 103.845 50.1185C104.413 50.1185 104.909 50.2412 105.342 50.4928C105.774 50.7445 106.11 51.0801 106.362 51.5125C106.607 51.9449 106.736 52.4418 106.736 53.0033C106.742 53.5648 106.62 54.0681 106.368 54.5005C106.123 54.9394 105.781 55.275 105.342 55.5202C104.903 55.7654 104.4 55.8945 103.845 55.901ZM103.845 55.2169C104.258 55.2169 104.626 55.1265 104.942 54.9458C105.258 54.7587 105.503 54.5005 105.69 54.1649C105.871 53.8293 105.968 53.4421 105.974 53.0033C105.968 52.558 105.871 52.1708 105.69 51.8352C105.503 51.5061 105.258 51.2479 104.942 51.0672C104.626 50.8801 104.258 50.7897 103.845 50.7897C103.451 50.7897 103.096 50.8801 102.78 51.0672C102.464 51.2479 102.212 51.5061 102.025 51.8352C101.838 52.1708 101.734 52.558 101.728 53.0033C101.734 53.4421 101.838 53.8293 102.025 54.1649C102.212 54.5005 102.457 54.7651 102.773 54.9523C103.083 55.1394 103.445 55.2298 103.845 55.2169ZM111.208 50.1185C111.666 50.1185 112.073 50.2089 112.421 50.3831C112.77 50.5638 113.047 50.8284 113.241 51.1898C113.441 51.5512 113.538 52.003 113.538 52.5515V55.8493H112.776V52.629C112.776 52.0288 112.622 51.577 112.325 51.2737C112.028 50.964 111.608 50.8091 111.066 50.8091C110.66 50.8091 110.311 50.893 110.014 51.0543C109.711 51.2156 109.485 51.448 109.324 51.7577C109.156 52.0611 109.079 52.4354 109.079 52.8613V55.8493H108.311V50.1766H109.046V51.7319L108.93 51.4351C109.104 51.0285 109.395 50.7058 109.788 50.4735C110.189 50.2347 110.66 50.1185 111.208 50.1185ZM119.172 55.8493V54.5909L119.14 54.3908V52.2934C119.14 51.8094 119.004 51.4351 118.733 51.1769C118.462 50.9188 118.062 50.7897 117.526 50.7897C117.158 50.7897 116.81 50.8542 116.481 50.9704C116.152 51.093 115.868 51.2608 115.635 51.4609L115.293 50.8865C115.577 50.6413 115.926 50.4541 116.326 50.3186C116.732 50.1895 117.158 50.1185 117.604 50.1185C118.339 50.1185 118.907 50.2992 119.307 50.6671C119.708 51.0285 119.908 51.5835 119.908 52.3257V55.8493H119.172ZM117.216 55.901C116.791 55.901 116.423 55.83 116.106 55.688C115.797 55.5525 115.558 55.3524 115.39 55.1072C115.222 54.8555 115.138 54.5715 115.138 54.2488C115.138 53.952 115.209 53.6809 115.351 53.4421C115.493 53.2033 115.726 53.0097 116.042 52.8613C116.365 52.7129 116.791 52.6354 117.333 52.6354H119.288V53.2098H117.358C116.81 53.2098 116.429 53.3066 116.216 53.5002C116.003 53.6938 115.9 53.9391 115.9 54.2295C115.9 54.5521 116.023 54.8103 116.274 55.0039C116.526 55.1975 116.881 55.2943 117.333 55.2943C117.765 55.2943 118.139 55.1975 118.449 54.9974C118.765 54.8038 118.998 54.5134 119.14 54.1391L119.314 54.6683C119.165 55.0426 118.914 55.3395 118.559 55.5654C118.204 55.7912 117.752 55.901 117.216 55.901ZM121.992 55.8493V47.8275H122.76V55.8493H121.992ZM124.909 55.8493L124.896 50.1766H125.664V55.8493H124.909ZM125.29 48.9182C125.129 48.9182 124.993 48.8665 124.89 48.7568C124.78 48.6536 124.722 48.518 124.722 48.3696C124.722 48.2212 124.78 48.0921 124.89 47.9889C124.993 47.8791 125.129 47.8275 125.29 47.8275C125.445 47.8275 125.58 47.8791 125.684 47.9824C125.793 48.0792 125.851 48.2083 125.851 48.3567C125.851 48.518 125.793 48.6536 125.69 48.7568C125.587 48.8665 125.451 48.9182 125.29 48.9182ZM127.187 55.8493V55.3395L130.969 50.5509L131.13 50.8091H127.252V50.1766H131.737V50.6735L127.968 55.4686L127.775 55.2104H131.814V55.8493H127.187ZM136.881 55.8493V54.5909L136.848 54.3908V52.2934C136.848 51.8094 136.713 51.4351 136.442 51.1769C136.171 50.9188 135.771 50.7897 135.241 50.7897C134.873 50.7897 134.525 50.8542 134.189 50.9704C133.86 51.093 133.576 51.2608 133.344 51.4609L133.002 50.8865C133.292 50.6413 133.634 50.4541 134.041 50.3186C134.441 50.1895 134.867 50.1185 135.312 50.1185C136.048 50.1185 136.616 50.2992 137.016 50.6671C137.416 51.0285 137.616 51.5835 137.616 52.3257V55.8493H136.881ZM134.925 55.901C134.499 55.901 134.131 55.83 133.815 55.688C133.505 55.5525 133.267 55.3524 133.099 55.1072C132.931 54.8555 132.854 54.5715 132.854 54.2488C132.854 53.952 132.918 53.6809 133.06 53.4421C133.202 53.2033 133.434 53.0097 133.751 52.8613C134.073 52.7129 134.506 52.6354 135.041 52.6354H136.997V53.2098H135.067C134.519 53.2098 134.138 53.3066 133.925 53.5002C133.712 53.6938 133.609 53.9391 133.609 54.2295C133.609 54.5521 133.731 54.8103 133.983 55.0039C134.235 55.1975 134.59 55.2943 135.041 55.2943C135.474 55.2943 135.848 55.1975 136.164 54.9974C136.474 54.8038 136.706 54.5134 136.848 54.1391L137.023 54.6683C136.881 55.0426 136.629 55.3395 136.267 55.5654C135.913 55.7912 135.467 55.901 134.925 55.901ZM141.96 55.901C141.417 55.901 140.933 55.7783 140.507 55.5331C140.075 55.2879 139.739 54.9458 139.494 54.5134C139.249 54.0746 139.126 53.5712 139.126 53.0033C139.126 52.4289 139.249 51.9255 139.494 51.4932C139.739 51.0608 140.075 50.7252 140.507 50.4799C140.933 50.2412 141.417 50.1185 141.96 50.1185C142.456 50.1185 142.902 50.2347 143.295 50.4541C143.689 50.68 143.999 51.0027 144.231 51.4351C144.47 51.861 144.586 52.3837 144.586 53.0033C144.586 53.6164 144.47 54.1391 144.238 54.5715C144.005 55.0039 143.696 55.333 143.302 55.5589C142.915 55.7848 142.463 55.901 141.96 55.901ZM142.011 55.2169C142.418 55.2169 142.779 55.1265 143.102 54.9458C143.418 54.7587 143.67 54.5005 143.857 54.1649C144.038 53.8293 144.128 53.4421 144.128 53.0033C144.128 52.558 144.038 52.1708 143.857 51.8352C143.67 51.5061 143.418 51.2479 143.102 51.0672C142.779 50.8801 142.418 50.7897 142.011 50.7897C141.618 50.7897 141.263 50.8801 140.946 51.0672C140.624 51.2479 140.372 51.5061 140.185 51.8352C139.998 52.1708 139.907 52.558 139.907 53.0033C139.907 53.4421 139.998 53.8293 140.185 54.1649C140.372 54.5005 140.624 54.7587 140.946 54.9458C141.263 55.1265 141.618 55.2169 142.011 55.2169ZM144.154 55.8493V54.1391L144.231 52.9968L144.121 51.8481V47.8275H144.889V55.8493H144.154ZM149.336 55.901C148.787 55.8945 148.291 55.7654 147.858 55.5202C147.426 55.275 147.084 54.9394 146.838 54.5005C146.587 54.0681 146.464 53.5648 146.464 53.0033C146.458 52.4354 146.58 51.9384 146.838 51.5061C147.097 51.0801 147.439 50.7445 147.865 50.4928C148.291 50.2412 148.787 50.1185 149.336 50.1185C149.904 50.1185 150.401 50.2412 150.833 50.4928C151.266 50.7445 151.601 51.0801 151.853 51.5125C152.098 51.9449 152.227 52.4418 152.227 53.0033C152.234 53.5648 152.111 54.0681 151.859 54.5005C151.614 54.9394 151.272 55.275 150.833 55.5202C150.388 55.7654 149.891 55.8945 149.336 55.901ZM149.336 55.2169C149.749 55.2169 150.117 55.1265 150.433 54.9458C150.749 54.7587 150.995 54.5005 151.182 54.1649C151.362 53.8293 151.459 53.4421 151.466 53.0033C151.459 52.558 151.362 52.1708 151.182 51.8352C150.995 51.5061 150.749 51.2479 150.433 51.0672C150.117 50.8801 149.749 50.7897 149.336 50.7897C148.942 50.7897 148.587 50.8801 148.271 51.0672C147.955 51.2479 147.703 51.5061 147.51 51.8352C147.329 52.1708 147.226 52.558 147.219 53.0033C147.226 53.4421 147.329 53.8293 147.51 54.1649C147.703 54.5005 147.948 54.7651 148.265 54.9523C148.574 55.1394 148.936 55.2298 149.336 55.2169ZM155.325 55.901C154.854 55.901 154.415 55.8364 153.995 55.7009C153.576 55.5654 153.253 55.3976 153.015 55.1975L153.357 54.5909C153.589 54.7651 153.886 54.9136 154.247 55.0426C154.602 55.1652 154.983 55.2298 155.377 55.2298C155.919 55.2298 156.306 55.1459 156.545 54.9781C156.783 54.8103 156.906 54.5844 156.906 54.3005C156.906 54.0939 156.835 53.9326 156.706 53.81C156.57 53.6938 156.396 53.6035 156.177 53.5389C155.964 53.4809 155.719 53.4292 155.454 53.3841C155.189 53.3389 154.925 53.2873 154.66 53.2292C154.396 53.1775 154.157 53.0872 153.944 52.9775C153.724 52.8678 153.55 52.7129 153.421 52.5193C153.286 52.3257 153.221 52.0675 153.221 51.7384C153.221 51.4286 153.305 51.1511 153.479 50.9059C153.653 50.6671 153.905 50.4735 154.241 50.3315C154.576 50.1895 154.983 50.1185 155.467 50.1185C155.835 50.1185 156.203 50.1702 156.57 50.267C156.938 50.3638 157.235 50.4928 157.474 50.6477L157.138 51.2673C156.887 51.093 156.616 50.9704 156.332 50.893C156.041 50.8155 155.757 50.7768 155.467 50.7768C154.957 50.7768 154.576 50.8672 154.338 51.0414C154.092 51.2221 153.976 51.448 153.976 51.719C153.976 51.9384 154.041 52.1062 154.176 52.2289C154.305 52.3515 154.486 52.4483 154.705 52.5128C154.925 52.5838 155.164 52.6354 155.428 52.6806C155.693 52.7258 155.951 52.7774 156.216 52.8355C156.48 52.9 156.719 52.9839 156.938 53.0872C157.158 53.1904 157.338 53.3389 157.468 53.5325C157.603 53.7196 157.668 53.9713 157.668 54.2811C157.668 54.6102 157.577 54.9006 157.397 55.1394C157.209 55.3782 156.945 55.5654 156.596 55.7009C156.248 55.8364 155.822 55.901 155.325 55.901ZM165.354 55.9139C164.786 55.9139 164.257 55.8171 163.773 55.6234C163.295 55.4363 162.876 55.1652 162.521 54.8232C162.166 54.4747 161.895 54.0681 161.695 53.597C161.495 53.1324 161.398 52.6225 161.398 52.0675C161.398 51.5125 161.495 50.9962 161.695 50.5316C161.895 50.0605 162.172 49.6539 162.527 49.3118C162.882 48.9633 163.302 48.6988 163.786 48.5051C164.27 48.3115 164.792 48.2212 165.367 48.2212C165.909 48.2212 166.425 48.3115 166.909 48.4922C167.393 48.6794 167.8 48.9504 168.129 49.3183L167.619 49.8281C167.309 49.5119 166.967 49.286 166.593 49.144C166.219 49.0021 165.818 48.9311 165.386 48.9311C164.928 48.9311 164.508 49.0085 164.121 49.1634C163.734 49.3183 163.392 49.5377 163.101 49.8217C162.818 50.1056 162.592 50.4412 162.43 50.8155C162.269 51.1963 162.185 51.6093 162.185 52.0675C162.185 52.5193 162.269 52.9323 162.43 53.3131C162.592 53.6938 162.818 54.023 163.101 54.3069C163.392 54.5909 163.734 54.8103 164.121 54.9652C164.508 55.1201 164.928 55.1975 165.386 55.1975C165.818 55.1975 166.219 55.1265 166.593 54.9845C166.967 54.8361 167.309 54.6102 167.619 54.294L168.129 54.7974C167.8 55.1652 167.393 55.4427 166.909 55.6299C166.425 55.8171 165.909 55.9139 165.354 55.9139ZM171.736 55.901C171.181 55.8945 170.691 55.7654 170.259 55.5202C169.826 55.275 169.484 54.9394 169.239 54.5005C168.987 54.0681 168.865 53.5648 168.865 53.0033C168.858 52.4354 168.981 51.9384 169.239 51.5061C169.491 51.0801 169.833 50.7445 170.265 50.4928C170.691 50.2412 171.181 50.1185 171.736 50.1185C172.298 50.1185 172.795 50.2412 173.227 50.4928C173.66 50.7445 174.002 51.0801 174.253 51.5125C174.499 51.9449 174.621 52.4418 174.621 53.0033C174.628 53.5648 174.511 54.0681 174.26 54.5005C174.014 54.9394 173.666 55.275 173.227 55.5202C172.788 55.7654 172.291 55.8945 171.736 55.901ZM171.736 55.2169C172.149 55.2169 172.511 55.1265 172.827 54.9458C173.15 54.7587 173.395 54.5005 173.582 54.1649C173.763 53.8293 173.86 53.4421 173.866 53.0033C173.86 52.558 173.763 52.1708 173.582 51.8352C173.395 51.5061 173.15 51.2479 172.827 51.0672C172.511 50.8801 172.149 50.7897 171.736 50.7897C171.343 50.7897 170.988 50.8801 170.665 51.0672C170.349 51.2479 170.097 51.5061 169.91 51.8352C169.723 52.1708 169.626 52.558 169.62 53.0033C169.626 53.4421 169.723 53.8293 169.91 54.1649C170.097 54.5005 170.349 54.7651 170.665 54.9523C170.975 55.1394 171.336 55.2298 171.736 55.2169ZM176.202 55.8493V50.1766H176.938V51.719L176.861 51.448C177.015 51.0156 177.286 50.6865 177.661 50.4606C178.035 50.2347 178.5 50.1185 179.055 50.1185V50.8672C179.022 50.8672 178.997 50.8607 178.964 50.8607C178.939 50.8542 178.906 50.8542 178.88 50.8542C178.28 50.8542 177.816 51.0349 177.474 51.4028C177.138 51.7642 176.97 52.2805 176.97 52.9517V55.8493H176.202ZM183.379 55.901C182.888 55.901 182.443 55.7848 182.049 55.5589C181.649 55.333 181.333 55.0039 181.101 54.578C180.868 54.152 180.752 53.6228 180.752 53.0033C180.752 52.3837 180.868 51.861 181.094 51.4351C181.326 51.0027 181.643 50.68 182.036 50.4541C182.43 50.2347 182.875 50.1185 183.379 50.1185C183.914 50.1185 184.398 50.2412 184.831 50.4799C185.257 50.7252 185.592 51.0608 185.837 51.4996C186.083 51.932 186.205 52.4354 186.205 53.0033C186.205 53.5841 186.083 54.0875 185.837 54.5199C185.592 54.9523 185.257 55.2879 184.831 55.5331C184.398 55.7783 183.914 55.901 183.379 55.901ZM180.449 57.9467V50.1766H181.184V51.8804L181.107 53.0162L181.217 54.1585V57.9467H180.449ZM183.321 55.2169C183.727 55.2169 184.082 55.1265 184.405 54.9458C184.721 54.7587 184.973 54.5005 185.16 54.1649C185.347 53.8293 185.437 53.4421 185.437 53.0033C185.437 52.5644 185.347 52.1772 185.16 51.8481C184.973 51.519 184.721 51.2608 184.405 51.0737C184.082 50.8865 183.727 50.7897 183.321 50.7897C182.92 50.7897 182.559 50.8865 182.236 51.0737C181.914 51.2608 181.662 51.519 181.481 51.8481C181.294 52.1772 181.204 52.5644 181.204 53.0033C181.204 53.4421 181.294 53.8293 181.481 54.1649C181.662 54.5005 181.914 54.7587 182.236 54.9458C182.559 55.1265 182.92 55.2169 183.321 55.2169ZM190.084 55.901C189.529 55.8945 189.038 55.7654 188.606 55.5202C188.174 55.275 187.832 54.9394 187.586 54.5005C187.335 54.0681 187.212 53.5648 187.212 53.0033C187.206 52.4354 187.328 51.9384 187.586 51.5061C187.838 51.0801 188.18 50.7445 188.613 50.4928C189.038 50.2412 189.529 50.1185 190.084 50.1185C190.645 50.1185 191.142 50.2412 191.575 50.4928C192.007 50.7445 192.349 51.0801 192.601 51.5125C192.846 51.9449 192.969 52.4418 192.969 53.0033C192.975 53.5648 192.859 54.0681 192.607 54.5005C192.362 54.9394 192.014 55.275 191.575 55.5202C191.136 55.7654 190.639 55.8945 190.084 55.901ZM190.084 55.2169C190.497 55.2169 190.858 55.1265 191.175 54.9458C191.497 54.7587 191.742 54.5005 191.93 54.1649C192.11 53.8293 192.207 53.4421 192.214 53.0033C192.207 52.558 192.11 52.1708 191.93 51.8352C191.742 51.5061 191.497 51.2479 191.175 51.0672C190.858 50.8801 190.497 50.7897 190.084 50.7897C189.69 50.7897 189.335 50.8801 189.013 51.0672C188.696 51.2479 188.445 51.5061 188.258 51.8352C188.07 52.1708 187.974 52.558 187.967 53.0033C187.974 53.4421 188.07 53.8293 188.258 54.1649C188.445 54.5005 188.696 54.7651 189.013 54.9523C189.322 55.1394 189.684 55.2298 190.084 55.2169ZM194.55 55.8493V50.1766H195.286V51.719L195.208 51.448C195.363 51.0156 195.634 50.6865 196.008 50.4606C196.383 50.2347 196.847 50.1185 197.402 50.1185V50.8672C197.37 50.8672 197.344 50.8607 197.312 50.8607C197.286 50.8542 197.254 50.8542 197.228 50.8542C196.628 50.8542 196.163 51.0349 195.821 51.4028C195.486 51.7642 195.318 52.2805 195.318 52.9517V55.8493H194.55ZM201.926 55.8493V54.5909L201.894 54.3908V52.2934C201.894 51.8094 201.758 51.4351 201.494 51.1769C201.223 50.9188 200.816 50.7897 200.287 50.7897C199.919 50.7897 199.571 50.8542 199.235 50.9704C198.906 51.093 198.628 51.2608 198.396 51.4609L198.048 50.8865C198.338 50.6413 198.687 50.4541 199.087 50.3186C199.493 50.1895 199.913 50.1185 200.364 50.1185C201.094 50.1185 201.662 50.2992 202.062 50.6671C202.462 51.0285 202.662 51.5835 202.662 52.3257V55.8493H201.926ZM199.971 55.901C199.545 55.901 199.177 55.83 198.867 55.688C198.551 55.5525 198.312 55.3524 198.144 55.1072C197.983 54.8555 197.899 54.5715 197.899 54.2488C197.899 53.952 197.97 53.6809 198.112 53.4421C198.248 53.2033 198.48 53.0097 198.803 52.8613C199.119 52.7129 199.551 52.6354 200.093 52.6354H202.049V53.2098H200.113C199.564 53.2098 199.183 53.3066 198.971 53.5002C198.758 53.6938 198.654 53.9391 198.654 54.2295C198.654 54.5521 198.783 54.8103 199.035 55.0039C199.287 55.1975 199.635 55.2943 200.093 55.2943C200.526 55.2943 200.894 55.1975 201.21 54.9974C201.526 54.8038 201.752 54.5134 201.894 54.1391L202.068 54.6683C201.926 55.0426 201.675 55.3395 201.32 55.5654C200.965 55.7912 200.513 55.901 199.971 55.901ZM206.541 55.901C206.011 55.901 205.598 55.759 205.308 55.4686C205.024 55.1781 204.876 54.7716 204.876 54.2488V48.9182H205.644V54.2037C205.644 54.5328 205.727 54.7909 205.902 54.9716C206.069 55.1523 206.315 55.2427 206.631 55.2427C206.967 55.2427 207.25 55.1459 207.47 54.9523L207.741 55.5008C207.592 55.6364 207.405 55.7396 207.199 55.8041C206.986 55.8687 206.766 55.901 206.541 55.901ZM203.862 50.8091V50.1766H207.373V50.8091H203.862ZM209.148 55.8493L209.135 50.1766H209.903V55.8493H209.148ZM209.522 48.9182C209.367 48.9182 209.232 48.8665 209.122 48.7568C209.019 48.6536 208.961 48.518 208.961 48.3696C208.961 48.2212 209.019 48.0921 209.122 47.9889C209.232 47.8791 209.367 47.8275 209.522 47.8275C209.683 47.8275 209.819 47.8791 209.922 47.9824C210.032 48.0792 210.084 48.2083 210.084 48.3567C210.084 48.518 210.032 48.6536 209.929 48.7568C209.825 48.8665 209.69 48.9182 209.522 48.9182ZM213.498 55.8493L210.981 50.1766H211.781L214.098 55.4363H213.717L216.06 50.1766H216.815L214.291 55.8493H213.498ZM220.048 55.901C219.493 55.8945 219.002 55.7654 218.57 55.5202C218.138 55.275 217.796 54.9394 217.544 54.5005C217.299 54.0681 217.176 53.5648 217.176 53.0033C217.17 52.4354 217.292 51.9384 217.544 51.5061C217.802 51.0801 218.144 50.7445 218.57 50.4928C219.002 50.2412 219.493 50.1185 220.048 50.1185C220.609 50.1185 221.106 50.2412 221.539 50.4928C221.971 50.7445 222.313 51.0801 222.558 51.5125C222.81 51.9449 222.933 52.4418 222.933 53.0033C222.939 53.5648 222.817 54.0681 222.571 54.5005C222.326 54.9394 221.978 55.275 221.539 55.5202C221.1 55.7654 220.603 55.8945 220.048 55.901ZM220.048 55.2169C220.461 55.2169 220.822 55.1265 221.139 54.9458C221.455 54.7587 221.706 54.5005 221.887 54.1649C222.074 53.8293 222.171 53.4421 222.178 53.0033C222.171 52.558 222.074 52.1708 221.887 51.8352C221.706 51.5061 221.455 51.2479 221.139 51.0672C220.822 50.8801 220.461 50.7897 220.048 50.7897C219.654 50.7897 219.293 50.8801 218.977 51.0672C218.66 51.2479 218.409 51.5061 218.222 51.8352C218.034 52.1708 217.938 52.558 217.931 53.0033C217.938 53.4421 218.034 53.8293 218.222 54.1649C218.409 54.5005 218.66 54.7651 218.97 54.9523C219.286 55.1394 219.648 55.2298 220.048 55.2169ZM226.037 55.901C225.566 55.901 225.12 55.8364 224.707 55.7009C224.288 55.5654 223.959 55.3976 223.72 55.1975L224.069 54.5909C224.301 54.7651 224.591 54.9136 224.953 55.0426C225.314 55.1652 225.695 55.2298 226.088 55.2298C226.631 55.2298 227.018 55.1459 227.257 54.9781C227.495 54.8103 227.612 54.5844 227.612 54.3005C227.612 54.0939 227.547 53.9326 227.411 53.81C227.276 53.6938 227.102 53.6035 226.889 53.5389C226.669 53.4809 226.431 53.4292 226.166 53.3841C225.895 53.3389 225.63 53.2873 225.372 53.2292C225.108 53.1775 224.869 53.0872 224.649 52.9775C224.436 52.8678 224.262 52.7129 224.127 52.5193C223.998 52.3257 223.927 52.0675 223.927 51.7384C223.927 51.4286 224.017 51.1511 224.185 50.9059C224.359 50.6671 224.611 50.4735 224.946 50.3315C225.282 50.1895 225.695 50.1185 226.172 50.1185C226.54 50.1185 226.908 50.1702 227.276 50.267C227.644 50.3638 227.947 50.4928 228.186 50.6477L227.85 51.2673C227.599 51.093 227.328 50.9704 227.037 50.893C226.753 50.8155 226.463 50.7768 226.172 50.7768C225.663 50.7768 225.288 50.8672 225.043 51.0414C224.804 51.2221 224.682 51.448 224.682 51.719C224.682 51.9384 224.753 52.1062 224.882 52.2289C225.017 52.3515 225.191 52.4483 225.411 52.5128C225.63 52.5838 225.876 52.6354 226.14 52.6806C226.398 52.7258 226.663 52.7774 226.927 52.8355C227.186 52.9 227.431 52.9839 227.65 53.0872C227.87 53.1904 228.044 53.3389 228.179 53.5325C228.315 53.7196 228.38 53.9713 228.38 54.2811C228.38 54.6102 228.289 54.9006 228.102 55.1394C227.921 55.3782 227.65 55.5654 227.302 55.7009C226.953 55.8364 226.534 55.901 226.037 55.901Z" fill="white"/>
<path fill-rule="evenodd" clip-rule="evenodd" d="M14.9916 58.05H22.1099C27.9956 58.05 32.8035 53.2421 32.8035 47.3564V0H25.6852C19.806 0 14.9916 4.81437 14.9916 10.7V58.05Z" fill="white"/>
<path fill-rule="evenodd" clip-rule="evenodd" d="M47.7953 10.8872H43.3488C39.6702 10.8872 36.6628 13.8946 36.6628 17.5731V47.1693H41.1094C44.7879 47.1693 47.7953 44.1619 47.7953 40.4834V10.8872Z" fill="white"/>
<path fill-rule="evenodd" clip-rule="evenodd" d="M0 10.8872H4.44652C8.12506 10.8872 11.1324 13.8946 11.1324 17.5731V47.1693H6.68591C3.00737 47.1693 0 44.1619 0 40.4834V10.8872Z" fill="white"/>
</svg>
