<?xml version="1.0" encoding="UTF-8"?>
<!DOCTYPE svg PUBLIC "-//W3C//DTD SVG 1.1//EN" "http://www.w3.org/Graphics/SVG/1.1/DTD/svg11.dtd">
<!-- Creator: CorelDRAW -->
<svg xmlns="http://www.w3.org/2000/svg" xml:space="preserve" width="48px" height="48px" version="1.1" style="shape-rendering:geometricPrecision; text-rendering:geometricPrecision; image-rendering:optimizeQuality; fill-rule:evenodd; clip-rule:evenodd"
viewBox="0 0 1.52 1.52"
 xmlns:xlink="http://www.w3.org/1999/xlink"
 xmlns:xodm="http://www.corel.com/coreldraw/odm/2003">
 <defs>
  <style type="text/css">
   <![CDATA[
    .fil1 {fill:#FEFEFE;fill-rule:nonzero}
    .fil0 {fill:url(#id0)}
   ]]>
  </style>
  <radialGradient id="id0" gradientUnits="userSpaceOnUse" gradientTransform="matrix(-6.69501 7.16918 -7.22187 -6.74383 19 -39)" cx="3.85" cy="-1.43" r="0.91" fx="3.85" fy="-1.43">
   <stop offset="0" style="stop-opacity:1; stop-color:lime"/>
   <stop offset="0.588235" style="stop-opacity:1; stop-color:#00B21A"/>
   <stop offset="1" style="stop-opacity:1; stop-color:#006633"/>
  </radialGradient>
 </defs>
 <g id="Camada_x0020_1">
  <metadata id="CorelCorpID_0Corel-Layer"/>
  <path class="fil0" d="M1.24 1.2c0.12,-0.12 0.19,-0.28 0.19,-0.46 0,-0.18 -0.07,-0.34 -0.19,-0.46 -0.12,-0.12 -0.29,-0.19 -0.47,-0.19l0 0c-0.18,0 -0.35,0.07 -0.46,0.19 -0.12,0.12 -0.2,0.28 -0.2,0.46 0,0.07 0.01,0.14 0.03,0.2 0.03,0.07 0.06,0.13 0.1,0.18 0,0.01 0,0.01 0,0.02l-0.08 0.22 0.24 -0.08c0,0 0,0 0.01,0.01 0.05,0.03 0.11,0.06 0.17,0.08 0.06,0.01 0.13,0.02 0.19,0.02 0.18,0 0.35,-0.07 0.47,-0.19z"/>
  <path class="fil1" d="M1.52 0.74c0,0.2 -0.09,0.39 -0.22,0.52 -0.14,0.14 -0.32,0.22 -0.53,0.22 -0.06,0 -0.12,-0.01 -0.18,-0.02 -0.06,-0.02 -0.12,-0.04 -0.17,-0.07l-0.4 0.13c-0.01,0 -0.02,0 -0.02,-0.01 0,0 0,-0.01 0,-0.01l0.13 -0.38c-0.03,-0.06 -0.06,-0.12 -0.08,-0.18l0 0c-0.01,-0.07 -0.02,-0.13 -0.02,-0.2 0,-0.2 0.08,-0.39 0.22,-0.52 0.13,-0.14 0.32,-0.22 0.52,-0.22 0.21,0 0.4,0.08 0.53,0.22 0.13,0.13 0.22,0.32 0.22,0.52l0 0zm-0.37 0.17c-0.01,-0.01 -0.02,-0.01 -0.04,-0.02 -0.02,-0.01 -0.11,-0.05 -0.12,-0.06 -0.02,-0.01 -0.03,-0.01 -0.04,0.01 -0.01,0.02 -0.05,0.06 -0.06,0.07 -0.01,0.01 -0.02,0.01 -0.04,0.01 -0.02,-0.01 -0.08,-0.03 -0.15,-0.09 -0.05,-0.05 -0.09,-0.11 -0.1,-0.13 -0.01,-0.02 0,-0.03 0.01,-0.04 0.01,-0.01 0.02,-0.02 0.03,-0.03 0,-0.01 0.01,-0.02 0.01,-0.03 0.01,-0.01 0.01,-0.02 0,-0.03 0,-0.01 -0.04,-0.1 -0.05,-0.14 -0.02,-0.03 -0.03,-0.03 -0.05,-0.03 -0.01,0 -0.02,0 -0.03,0 -0.01,0 -0.03,0.01 -0.05,0.03 -0.02,0.01 -0.06,0.06 -0.06,0.15 0,0.09 0.06,0.17 0.07,0.18 0.01,0.02 0.13,0.21 0.31,0.28 0.19,0.07 0.19,0.05 0.22,0.04 0.04,0 0.11,-0.04 0.13,-0.08 0.01,-0.05 0.01,-0.08 0.01,-0.09l0 0zm-0.38 -0.77c-0.16,0 -0.32,0.07 -0.42,0.18 -0.11,0.11 -0.18,0.26 -0.18,0.42 0,0.06 0.01,0.13 0.03,0.18 0.02,0.06 0.05,0.12 0.08,0.17 0.01,0 0.01,0.01 0.01,0.01l-0.07 0.2 0.21 -0.06c0,0 0.01,0 0.01,0 0.05,0.03 0.1,0.06 0.16,0.07 0.05,0.02 0.11,0.03 0.17,0.03 0.17,0 0.32,-0.07 0.43,-0.18 0.11,-0.11 0.17,-0.26 0.17,-0.42 0,-0.17 -0.06,-0.31 -0.17,-0.42 -0.11,-0.11 -0.26,-0.18 -0.43,-0.18l0 0z"/>
 </g>
</svg>
